<svg xmlns="http://www.w3.org/2000/svg" viewBox="0 0 32 32" fill="none">
  <defs>
    <linearGradient id="fg" x1="0%" y1="0%" x2="100%" y2="100%">
      <stop offset="0%" style="stop-color:#2563eb"/>
      <stop offset="100%" style="stop-color:#8b5cf6"/>
    </linearGradient>
  </defs>
  <rect width="32" height="32" rx="8" fill="url(#fg)"/>
  <path d="M11 11c-2.3 0-4 1.7-4 4v3.5c0 1.7 1.3 3 3 3s3-1.3 3-3v-4.5c0-1.6-.8-3-2-3z" fill="white" opacity="0.9"/>
  <path d="M21 11c2.3 0 4 1.7 4 4v3.5c0 1.7-1.3 3-3 3s-3-1.3-3-3v-4.5c0-1.6.8-3 2-3z" fill="white" opacity="0.9"/>
  <rect x="14" y="9" width="4" height="4" rx="1" fill="white" opacity="0.85"/>
  <path d="M13 13c0 0 1.5 2 3 2s3-2 3-2" stroke="white" stroke-width="1" fill="none" stroke-linecap="round" opacity="0.6"/>
  <path d="M9 24l2 0 1.5-2.5 1.5 4 1.5-2 1 1.5 1 0 5 0" stroke="rgba(255,255,255,0.6)" stroke-width="1.2" fill="none" stroke-linecap="round" stroke-linejoin="round"/>
</svg>
